<?xml version="1.0" encoding="UTF-8" standalone="no"?>
<!DOCTYPE svg PUBLIC "-//W3C//DTD SVG 1.1//EN" "http://www.w3.org/Graphics/SVG/1.1/DTD/svg11.dtd">
<svg width="100%" height="100%" viewBox="0 0 1000 1000" version="1.1" xmlns="http://www.w3.org/2000/svg" xmlns:xlink="http://www.w3.org/1999/xlink" xml:space="preserve" xmlns:serif="http://www.serif.com/" style="fill-rule:evenodd;clip-rule:evenodd;stroke-linejoin:round;stroke-miterlimit:2;">
    <g transform="matrix(2.71854,1.16723,-1.16723,2.71854,68.9924,-473.729)">
        <g transform="matrix(0.310588,-0.133354,0.133354,0.310588,41.7452,156.335)">
        </g>
    </g>
    <g transform="matrix(9.94736,4.09443,-4.09443,9.94736,-1107.93,-2029.55)">
        <g>
            <clipPath id="_clip1">
                <path d="M167.772,135.935L202.855,220.634L287.554,185.551L252.471,100.852L167.772,135.935Z" clip-rule="nonzero"/>
            </clipPath>
            <g clip-path="url(#_clip1)">
                <g transform="matrix(0.923878,-0.382688,-0.382688,-0.923878,260.076,193.156)">
                    <path d="M-17.542,-3.489C7.774,-3.489 28.297,17.033 28.297,42.349C28.297,67.665 7.775,88.188 -17.542,88.189C-42.858,88.189 -63.38,67.666 -63.38,42.35C-63.38,17.034 -42.858,-3.489 -17.542,-3.489" style="fill:rgb(0,102,179);fill-rule:nonzero;"/>
                </g>
                <g transform="matrix(0.923878,-0.382687,-0.382687,-0.923878,253.716,186.674)">
                    <path d="M-14.034,-2.791C6.219,-2.792 22.638,13.627 22.637,33.88C22.638,54.132 6.219,70.551 -14.034,70.551C-34.286,70.551 -50.705,54.132 -50.705,33.88C-50.705,13.627 -34.286,-2.791 -14.034,-2.791" style="fill:white;fill-rule:nonzero;"/>
                </g>
            </g>
        </g>
        <g transform="matrix(1,0,0,1,268.809,152.143)">
            <clipPath id="_clip2">
                <path d="M-97.712,-9.24L-70.173,57.245L13.777,22.472L-13.763,-44.013L-97.712,-9.24Z" clip-rule="nonzero"/>
            </clipPath>
            <g clip-path="url(#_clip2)">
                <path d="M0,-10.767C0.342,-10.236 -0.39,-8.756 -0.539,-7.886L-19.578,0L-20.24,-2.383L-18.787,-2.985L0,-10.767Z" style="fill:rgb(0,102,179);fill-rule:nonzero;"/>
            </g>
        </g>
        <g>
            <clipPath id="_clip3">
                <path d="M167.772,135.935L202.855,220.634L287.554,185.551L252.471,100.852L167.772,135.935Z" clip-rule="nonzero"/>
            </clipPath>
            <g clip-path="url(#_clip3)">
                <g transform="matrix(-0.497886,-0.867243,-0.867243,0.497886,250.885,144.695)">
                    <path d="M-8.723,-14.591C-9.393,-14.653 -10.29,-13.263 -10.952,-12.688L-8.723,4.572C-8.124,4.661 -6.84,4.517 -6.288,4.257L-8.723,-14.591Z" style="fill:rgb(255,203,3);fill-rule:nonzero;"/>
                </g>
                <g transform="matrix(-0.506435,-0.862278,-0.862278,0.506435,251.834,148.66)">
                    <path d="M-7.725,-13.048C-8.233,-13.102 -9.295,-11.705 -9.83,-11.137L-7.725,3.985C-6.993,3.813 -5.944,3.879 -5.413,3.555L-7.725,-13.048Z" style="fill:rgb(255,203,3);fill-rule:nonzero;"/>
                </g>
                <g transform="matrix(-0.524387,-0.85148,-0.85148,0.524387,252.743,152.659)">
                    <path d="M-6.71,-11.517C-7.177,-11.56 -8.284,-10.192 -8.776,-9.563L-6.71,3.298C-5.981,3.109 -4.931,3.154 -4.407,2.82L-6.71,-11.517Z" style="fill:rgb(255,203,3);fill-rule:nonzero;"/>
                </g>
                <g transform="matrix(-0.445637,-0.895214,-0.895214,0.445637,234.03,152.523)">
                    <path d="M-16.936,-26.322C-17.461,-26.399 -18.755,-25.067 -19.268,-24.448L-16.936,9.211C-16.107,9.37 -15.111,9.949 -14.426,9.892L-16.936,-26.322Z" style="fill:rgb(0,102,179);fill-rule:nonzero;"/>
                </g>
            </g>
        </g>
        <g>
            <clipPath id="_clip4">
                <path d="M171.097,142.903L198.636,209.388L282.586,174.615L255.046,108.13L171.097,142.903Z" clip-rule="nonzero"/>
            </clipPath>
            <g clip-path="url(#_clip4)">
                <g transform="matrix(1,0,0,1,255.717,191.481)">
                    <path d="M0,-18.103C1.168,-16.146 0.227,-13.974 0.193,-12.058C-5.033,-14.435 -10.108,-17.175 -15.305,-19.622C-14.898,-17.281 -12.784,-16.814 -11.076,-15.826C-8.749,-14.479 -6.469,-13.16 -4.087,-11.787C-2.877,-11.091 -1.485,-10.432 -0.691,-9.727C0.852,-8.357 -0.05,-6.935 -0.84,-5.621C-3.399,-5.229 -5.984,-4.776 -8.595,-4.258C-9.214,-4.999 -9.949,-5.461 -10.562,-6.217C-10.387,-5.545 -11.073,-5.23 -11.896,-4.97L-10.425,-1.419C-11.197,-2.382 -11.926,-3.451 -12.643,-4.545C-13.477,-4.113 -14.248,-3.828 -14.607,-4.541C-14.774,-4.12 -14.55,-3.537 -14.708,-3.112C-15.08,-2.831 -15.599,-2.611 -16.146,-2.401C-16.211,-1.747 -15.345,-0.707 -15.404,-0.05C-15.733,0.272 -16.72,0.681 -17.18,0.685C-17.62,0.233 -17.832,-0.766 -18.178,-1.444C-18.637,-1.519 -19.359,-0.959 -19.837,-0.987C-20.209,-1.209 -20.5,-1.625 -20.821,-1.967C-20.986,-1.709 -20.89,-1.342 -21.028,-1.072L-22.212,-0.582C-22.131,0.622 -21.861,1.905 -21.57,3.197C-22.195,2.338 -22.571,0.877 -23.099,-0.214C-23.427,-0.344 -24,0.118 -24.423,0.218C-24.646,0.23 -24.626,-0.342 -24.865,-0.292C-24.969,0.618 -24.96,1.576 -24.97,2.525C-27.142,3.995 -29.317,5.463 -31.32,7.004C-32.767,6.729 -34.547,6.428 -34.426,4.246C-34.361,3.082 -33.729,1.678 -33.384,0.348C-32.438,-3.296 -31.242,-7.836 -30.313,-11.21C-30.604,-11.849 -30.584,-12.357 -30.949,-13.026C-32.891,-8.002 -34.649,-2.194 -36.502,3.141C-37.953,2.004 -40.118,0.995 -40.698,-1.13C-41.018,-2.305 -40.547,-4.299 -40.483,-6.189C-40.408,-8.333 -40.496,-10.262 -40.191,-11.624L-35.062,-13.749C-33.366,-14.451 -31.593,-15.576 -30.031,-15.833C-28.465,-16.091 -26.906,-14.858 -25.598,-14.896C-25.494,-13.436 -25.437,-11.996 -25.427,-10.575C-24.243,-11.775 -23.461,-13.138 -22.38,-14.381C-20.607,-14.253 -18.933,-13.89 -17.215,-13.63C-18.285,-14.861 -19.418,-15.942 -20.51,-17.119C-19.485,-17.946 -19.267,-19.906 -17.997,-20.817C-16.669,-21.772 -14.515,-22.259 -12.768,-22.983L-7.64,-25.107C-5.978,-23.576 -3.807,-21.624 -1.886,-19.864C-1.249,-19.282 -0.324,-18.646 0,-18.103" style="fill:rgb(0,102,179);fill-rule:nonzero;"/>
                </g>
                <g transform="matrix(1,0,0,1,219.209,149.447)">
                    <path d="M0,-10.64C-1.119,-14.917 -5.137,-13.027 -2.902,-9.552C-2.213,-10.161 -0.843,-10.748 0,-10.64M2.288,-5.115C1.89,-6.603 1.004,-8.581 0.286,-9.949C-0.768,-10.248 -2.083,-9.611 -2.674,-8.723C-1.962,-7.024 -1.54,-5.439 -0.672,-3.889L2.288,-5.115ZM4.828,1.576C4.331,-0.401 3.514,-2.51 2.59,-4.662L-0.468,-3.396C0.392,-1.197 1.363,0.733 2.362,2.597C3.114,2.709 4.414,2.244 4.828,1.576M16.357,2.346C15.848,2.817 15.656,3.419 15.146,3.888C15.343,4.401 15.699,4.528 15.99,4.81C13.848,6.464 10.19,6.586 8.141,8.177C7.143,8.952 7.42,10.452 6.77,11.287C5.638,10.934 4.529,10.517 3.406,10.139L-3.104,12.835C-3.56,12.901 -3.09,12.058 -3.357,11.668C-3.991,11.492 -4.649,11.37 -5.344,11.335C-5.163,9.911 -4.776,8.433 -4.407,6.904C-3.887,4.752 -2.749,2.834 -4.014,0.037L-1.351,-1.066C-1.123,-0.694 -1.045,0.036 -0.721,0.176C-1.462,-2.404 -2.876,-4.979 -3.85,-7.658C-4.26,-8.782 -4.473,-9.974 -4.902,-11.035C-6.682,-15.436 -7.44,-19.823 -7.078,-23.541C-1.693,-19.336 1.687,-10.479 5.099,-2.235C5.496,-2.479 4.818,-3.168 4.764,-3.599L7.427,-4.702C8.475,-1.872 10.613,-1.328 12.561,-0.125C13.919,0.715 15.224,1.46 16.357,2.346" style="fill:rgb(0,102,179);fill-rule:nonzero;"/>
                </g>
            </g>
        </g>
        <g transform="matrix(1,0,0,1,233.125,176.647)">
            <clipPath id="_clip5">
                <path d="M-65.353,-40.712L-30.27,43.987L54.429,8.904L19.346,-75.795L-65.353,-40.712Z" clip-rule="nonzero"/>
            </clipPath>
            <g clip-path="url(#_clip5)">
                <path d="M0,-3.966L3.453,-5.396C2.806,-4.301 1.984,-3.278 1.309,-2.196C2.1,-1.409 2.846,-0.513 3.678,0.174C2.67,0.304 1.219,-0.203 0.025,-0.277C-0.812,0.628 -1.451,1.617 -2.141,2.585C-2.501,1.754 -2.295,0.451 -2.397,-0.546C-3.602,-0.863 -4.843,-1.087 -6.076,-1.333C-5.216,-1.957 -3.755,-2.333 -2.665,-2.862C-2.477,-4.01 -2.639,-5.303 -2.689,-6.551C-1.721,-5.86 -0.934,-4.738 0,-3.966" style="fill:rgb(255,203,3);fill-rule:nonzero;"/>
            </g>
        </g>
        <g>
            <clipPath id="_clip6">
                <path d="M171.097,142.903L198.636,209.388L282.586,174.615L255.046,108.13L171.097,142.903Z" clip-rule="nonzero"/>
            </clipPath>
            <g clip-path="url(#_clip6)">
                <g transform="matrix(-0.451748,-0.892146,-0.892146,0.451748,200.016,167.377)">
                    <path d="M-16.285,-24.616C-17.114,-24.267 -17.931,-23.906 -18.661,-23.472L-16.285,7.721C-15.614,8.486 -14.565,8.808 -13.796,9.458C-14.397,-1.702 -15.494,-13.291 -16.285,-24.616" style="fill:rgb(0,102,179);fill-rule:nonzero;"/>
                </g>
                <g transform="matrix(0.283913,0.95885,0.95885,-0.283913,203.979,181.148)">
                    <path d="M-12.487,6.4L-10.349,6.4C-9.896,-0.281 -8.629,-7.899 -7.982,-14.737C-8.504,-15.609 -9.478,-16.117 -10.117,-16.895C-11.095,-9.589 -11.697,-1.137 -12.487,6.4" style="fill:rgb(0,102,179);fill-rule:nonzero;"/>
                </g>
            </g>
        </g>
        <g>
            <clipPath id="_clip7">
                <path d="M167.772,135.935L202.855,220.634L287.554,185.551L252.471,100.852L167.772,135.935Z" clip-rule="nonzero"/>
            </clipPath>
            <g clip-path="url(#_clip7)">
                <g transform="matrix(1,0,0,1,208.264,183.479)">
                    <path d="M0,-7.203L0.899,-5.032L-5.117,-2.54C-7.126,-1.708 -9.466,-0.225 -11.035,-0.088C-12.065,0 -12.754,-1.316 -13.67,-1.425C-9.392,-3.466 -4.509,-5.258 0,-7.203" style="fill:rgb(255,203,3);fill-rule:nonzero;"/>
                </g>
                <g transform="matrix(1,0,0,1,207.12,181.573)">
                    <path d="M0,-8.058L0.899,-5.888L-9.656,-1.516C-10.848,-1.023 -12.2,-0.165 -13.108,-0.086C-14.088,0 -14.857,-1.331 -15.741,-1.422C-10.772,-3.749 -5.2,-5.826 0,-8.058" style="fill:rgb(255,203,3);fill-rule:nonzero;"/>
                </g>
                <g transform="matrix(1,0,0,1,188.083,172.259)">
                    <path d="M0,5.79L17.853,-1.605C18.101,-0.85 18.674,0.042 18.694,0.704L6.66,5.689C5.332,6.239 3.774,7.242 2.714,7.323C1.773,7.395 0.783,6.075 0,5.79" style="fill:rgb(255,203,3);fill-rule:nonzero;"/>
                </g>
                <g transform="matrix(1,0,0,1,211.78,176.756)">
                    <path d="M0,-11.569L0.818,-9.593L-0.706,-8.962L2.565,-1.064L-0.002,0L-3.274,-7.898L-4.792,-7.269L-5.611,-9.245L0,-11.569Z" style="fill:rgb(0,102,179);fill-rule:nonzero;"/>
                </g>
                <g transform="matrix(1,0,0,1,219.043,171.849)">
                    <path d="M0,-6.169L-2.385,-5.181L-2.688,-5.913C-2.829,-6.255 -2.95,-6.46 -3.05,-6.528C-3.149,-6.596 -3.27,-6.601 -3.413,-6.542C-3.567,-6.478 -3.658,-6.367 -3.685,-6.207C-3.712,-6.048 -3.672,-5.841 -3.566,-5.585C-3.43,-5.255 -3.282,-5.025 -3.124,-4.895C-2.97,-4.764 -2.645,-4.663 -2.148,-4.592C-0.724,-4.387 0.226,-4.129 0.703,-3.817C1.18,-3.504 1.619,-2.865 2.019,-1.897C2.311,-1.194 2.444,-0.642 2.417,-0.24C2.39,0.162 2.188,0.573 1.809,0.994C1.432,1.416 0.929,1.755 0.303,2.015C-0.384,2.299 -1.024,2.412 -1.618,2.353C-2.212,2.294 -2.667,2.095 -2.984,1.755C-3.301,1.414 -3.613,0.874 -3.919,0.134L-4.187,-0.512L-1.803,-1.5L-1.305,-0.298C-1.152,0.071 -1.02,0.296 -0.909,0.373C-0.798,0.451 -0.658,0.455 -0.486,0.384C-0.316,0.313 -0.217,0.193 -0.189,0.025C-0.161,-0.144 -0.202,-0.36 -0.312,-0.625C-0.552,-1.206 -0.789,-1.553 -1.022,-1.666C-1.258,-1.778 -1.783,-1.911 -2.594,-2.065C-3.408,-2.223 -3.958,-2.355 -4.244,-2.461C-4.531,-2.566 -4.812,-2.759 -5.088,-3.04C-5.364,-3.321 -5.611,-3.724 -5.828,-4.248C-6.141,-5.005 -6.273,-5.597 -6.225,-6.027C-6.177,-6.457 -5.978,-6.859 -5.629,-7.235C-5.28,-7.611 -4.8,-7.925 -4.19,-8.177C-3.523,-8.454 -2.911,-8.581 -2.352,-8.56C-1.793,-8.539 -1.369,-8.397 -1.082,-8.133C-0.793,-7.869 -0.487,-7.344 -0.162,-6.56L0,-6.169Z" style="fill:rgb(0,102,179);fill-rule:nonzero;"/>
                </g>
                <g transform="matrix(1,0,0,1,223.637,166.105)">
                    <path d="M0,0.523L1.144,3.286C1.501,3.124 1.708,2.971 1.766,2.828C1.823,2.685 1.77,2.414 1.605,2.016L1.223,1.095C1.048,0.672 0.897,0.435 0.771,0.382C0.644,0.33 0.387,0.377 0,0.523M-1.546,-3.209L-0.637,-1.014C-0.529,-1.063 -0.444,-1.101 -0.383,-1.126C-0.131,-1.231 0.004,-1.359 0.022,-1.512C0.04,-1.664 -0.073,-2.033 -0.315,-2.619C-0.443,-2.928 -0.561,-3.132 -0.67,-3.233C-0.778,-3.333 -0.884,-3.381 -0.99,-3.375C-1.094,-3.37 -1.28,-3.315 -1.546,-3.209M-4.813,-3.835L-2.252,-4.896C-1.443,-5.231 -0.804,-5.422 -0.335,-5.469C0.134,-5.515 0.576,-5.4 0.991,-5.122C1.406,-4.844 1.791,-4.279 2.144,-3.425C2.383,-2.848 2.459,-2.409 2.373,-2.106C2.286,-1.804 2.002,-1.481 1.52,-1.139C2.169,-1.25 2.664,-1.195 3.004,-0.971C3.344,-0.747 3.647,-0.314 3.913,0.329L4.293,1.244C4.569,1.911 4.697,2.437 4.678,2.822C4.659,3.206 4.507,3.526 4.222,3.782C3.938,4.038 3.279,4.38 2.246,4.808L-0.723,6.038L-4.813,-3.835Z" style="fill:rgb(0,102,179);fill-rule:nonzero;"/>
                </g>
                <g transform="matrix(1,0,0,1,231.064,168.541)">
                    <path d="M0,-11.341L2.733,-4.742C3.142,-3.755 3.395,-3.115 3.492,-2.824C3.589,-2.533 3.602,-2.239 3.53,-1.943C3.46,-1.647 3.301,-1.397 3.054,-1.192C2.809,-0.988 2.401,-0.768 1.833,-0.532L0.547,0L-0.168,-1.726C-0.009,-1.777 0.106,-1.817 0.174,-1.846C0.357,-1.922 0.483,-2.026 0.552,-2.159C0.621,-2.293 0.636,-2.428 0.599,-2.565C0.561,-2.701 0.465,-2.957 0.31,-3.331L-2.568,-10.277L0,-11.341Z" style="fill:rgb(0,102,179);fill-rule:nonzero;"/>
                </g>
                <g transform="matrix(1,0,0,1,232.058,164.889)">
                    <path d="M0,-8.101L4.281,-9.874L5.1,-7.898L3.386,-7.188L4.161,-5.316L5.766,-5.98L6.544,-4.102L4.939,-3.438L5.839,-1.267L7.723,-2.047L8.542,-0.071L4.09,1.773L0,-8.101Z" style="fill:rgb(0,102,179);fill-rule:nonzero;"/>
                </g>
                <g transform="matrix(1,0,0,1,242.255,164.133)">
                    <path d="M0,-11.569L0.818,-9.593L-0.707,-8.961L2.565,-1.063L-0.002,0L-3.274,-7.898L-4.793,-7.269L-5.611,-9.245L0,-11.569Z" style="fill:rgb(0,102,179);fill-rule:nonzero;"/>
                </g>
                <g transform="matrix(1,0,0,1,247.103,158.28)">
                    <path d="M0,-5.33C-0.027,-5.171 -1.257,-4.895 -1.151,-4.638C-1.014,-4.309 -0.868,-4.079 -0.709,-3.949C-0.555,-3.818 -0.23,-3.716 0.267,-3.646C1.691,-3.441 2.641,-3.183 3.117,-2.87C3.595,-2.558 4.034,-1.918 4.435,-0.951C4.726,-0.248 4.858,0.305 4.832,0.706C4.805,1.108 4.603,1.519 4.225,1.94C3.846,2.361 3.344,2.701 2.718,2.961C2.031,3.245 1.391,3.358 0.797,3.299C0.203,3.24 -0.252,3.041 -0.569,2.701C-0.886,2.36 -1.198,1.82 -1.505,1.08L-1.772,0.434L0.612,-0.554L1.11,0.648C1.263,1.018 1.395,1.242 1.506,1.319C1.617,1.397 1.758,1.401 1.928,1.33C2.099,1.26 2.198,1.14 2.226,0.971C2.254,0.802 2.213,0.586 2.104,0.321C1.863,-0.259 1.626,-0.607 1.394,-0.72C1.157,-0.832 0.633,-0.965 -0.179,-1.119C-0.993,-1.277 -1.543,-1.409 -1.829,-1.515C-2.116,-1.62 -2.397,-1.813 -2.673,-2.094C-2.949,-2.375 -3.196,-2.778 -3.413,-3.302C-3.726,-4.058 -3.858,-4.651 -3.81,-5.081C-3.762,-5.51 -3.563,-5.913 -3.214,-6.288C-2.864,-6.664 -2.385,-6.979 -1.775,-7.231C-1.108,-7.507 1.547,-8.688 2.105,-8.667C2.664,-8.646 1.777,-7.732 2.065,-7.467C2.354,-7.204 1.826,-6.924 2.151,-6.14L2.108,-6.121L-0.365,-5.153" style="fill:rgb(0,102,179);fill-rule:nonzero;"/>
                </g>
            </g>
        </g>
        <g transform="matrix(1,0,0,1,186.105,173.442)">
            <clipPath id="_clip8">
                <path d="M-2.85,-12.301L-0.871,0.501L4.408,-0.315L2.429,-13.117L-2.85,-12.301Z" clip-rule="nonzero"/>
            </clipPath>
            <g clip-path="url(#_clip8)">
                <path d="M0,-12.721C0.062,-12.72 0.117,-12.713 0.2,-12.698C0.407,-12.655 0.583,-12.571 0.752,-12.477C0.858,-12.381 0.967,-12.289 1.071,-12.189C1.135,-12.107 1.138,-12.101 1.171,-12.047C1.302,-11.838 1.392,-11.556 1.44,-11.226C1.467,-11.035 1.505,-10.801 1.538,-10.589C1.571,-10.372 1.609,-10.155 1.631,-9.984C1.644,-9.892 1.653,-9.831 1.673,-9.716C1.769,-9.1 1.884,-8.345 1.988,-7.678C1.488,-7.749 1.026,-7.874 0.526,-7.946C0.563,-7.88 0.682,-7.849 0.753,-7.801C0.861,-7.703 0.978,-7.596 1.066,-7.449C1.231,-7.174 1.261,-6.748 1.328,-6.312C1.508,-5.146 1.652,-4.238 1.83,-3.063C1.909,-3.019 2.02,-3.004 2.125,-2.983C2.323,-2.943 2.509,-2.91 2.732,-2.865C2.821,-2.847 2.966,-2.794 3.044,-2.827C3.135,-2.865 3.127,-3.03 3.048,-3.103C2.992,-3.159 2.7,-3.117 2.677,-3.204C2.661,-3.269 2.643,-3.427 2.63,-3.512C2.537,-4.114 2.456,-4.649 2.358,-5.268C2.065,-5.33 2.065,-5.33 1.87,-5.371C1.861,-5.431 1.848,-5.498 1.841,-5.558C2.037,-5.546 2.04,-5.53 2.324,-5.489C2.297,-5.661 2.272,-5.827 2.247,-5.988C2.22,-6.162 2.191,-6.329 2.171,-6.479C2.253,-6.47 2.317,-6.464 2.402,-6.449C2.42,-6.334 2.513,-5.733 2.556,-5.447C2.64,-5.421 3.187,-5.331 3.187,-5.331C3.187,-5.331 3.21,-5.198 3.22,-5.12C3.016,-5.143 2.781,-5.202 2.589,-5.24C2.596,-5.154 2.617,-5.062 2.63,-4.978C2.666,-4.74 2.703,-4.499 2.741,-4.257C2.865,-4.188 3.029,-4.19 3.17,-4.141C3.304,-4.095 3.425,-4.018 3.534,-3.922C3.607,-3.857 3.693,-3.788 3.747,-3.712C3.878,-3.523 3.978,-3.182 4.006,-2.897C4.031,-2.644 3.974,-2.414 3.898,-2.229C3.846,-2.105 3.775,-2.009 3.67,-1.919C3.601,-1.861 3.504,-1.796 3.391,-1.751C2.849,-1.686 2.455,-1.872 2.005,-1.932C2.016,-1.857 2.038,-1.769 2.05,-1.692C2.132,-1.159 2.234,-0.545 2.305,0.01C2.168,-0.004 2.041,-0.049 1.914,-0.086C1.789,-0.123 1.41,-0.225 1.355,-0.251C1.255,-0.909 1.153,-1.546 1.061,-2.105C0.684,-2.222 0.254,-2.265 -0.133,-2.367C-0.196,-2.684 -0.262,-3.117 -0.303,-3.463C0.106,-3.418 0.462,-3.317 0.891,-3.235C0.865,-3.402 0.856,-3.495 0.833,-3.63C0.689,-4.459 0.557,-5.362 0.418,-6.266C0.391,-6.439 0.382,-6.738 0.315,-6.878C0.278,-6.955 0.191,-6.988 0.087,-6.929C0.06,-6.913 0.045,-6.886 0.054,-6.845C0.16,-6.223 0.232,-5.554 0.36,-4.962C0.511,-4.212 0.259,-3.759 -0.288,-3.52C-0.411,-3.491 -0.468,-3.478 -0.556,-3.479C-0.714,-3.48 -0.908,-3.511 -1.036,-3.585C-1.051,-3.594 -1.135,-3.653 -1.169,-3.682C-1.29,-3.788 -1.405,-3.893 -1.495,-4.071C-1.622,-4.322 -1.671,-4.699 -1.729,-5.079C-1.81,-5.6 -2.288,-8.672 -2.432,-9.605C-2.237,-9.579 -2.034,-9.528 -1.831,-9.496C-1.737,-9.481 -1.643,-9.449 -1.547,-9.43C-1.449,-9.411 -1.325,-9.371 -1.222,-9.366C-1.241,-9.51 -1.261,-9.611 -1.278,-9.723C-1.332,-10.069 -1.387,-10.424 -1.439,-10.758C-1.509,-11.213 -1.479,-11.601 -1.316,-11.898C-1.237,-12.116 -1.065,-12.267 -0.912,-12.432C-0.7,-12.58 -0.352,-12.731 0,-12.721M0.377,-11.565C0.222,-11.688 0.083,-11.776 -0.135,-11.737C-0.354,-11.698 -0.47,-11.568 -0.547,-11.407C-0.621,-11.25 -0.612,-11.049 -0.581,-10.813C-0.512,-10.291 -0.401,-9.756 -0.314,-9.191C0.067,-9.096 0.52,-9.015 0.92,-8.947C0.888,-9.153 0.859,-9.341 0.831,-9.525C0.778,-9.868 0.727,-10.195 0.666,-10.59C0.61,-10.953 0.551,-11.336 0.377,-11.565M-1.333,-8.319C-1.353,-8.176 -1.312,-8.03 -1.29,-7.886C-1.141,-6.923 -1.013,-6.148 -0.874,-5.252C-0.84,-5.03 -0.829,-4.806 -0.748,-4.636C-0.698,-4.603 -0.618,-4.608 -0.553,-4.642C-0.498,-4.721 -0.525,-4.82 -0.539,-4.911C-0.589,-5.23 -0.63,-5.522 -0.679,-5.841C-0.747,-6.28 -0.891,-6.894 -0.789,-7.234C-0.751,-7.36 -0.679,-7.463 -0.629,-7.573C-0.493,-7.725 -0.331,-7.887 -0.084,-7.955C-0.009,-7.976 0.079,-7.963 0.151,-8.007C0.043,-8.057 -0.084,-8.078 -0.209,-8.101C-0.334,-8.124 -0.459,-8.153 -0.581,-8.176C-0.836,-8.218 -1.073,-8.285 -1.333,-8.319" style="fill:white;fill-rule:nonzero;"/>
            </g>
        </g>
        <g>
            <clipPath id="_clip9">
                <path d="M167.772,135.935L202.855,220.634L287.554,185.551L252.471,100.852L167.772,135.935Z" clip-rule="nonzero"/>
            </clipPath>
            <g clip-path="url(#_clip9)">
                <g transform="matrix(0.0926669,-0.995697,0.995697,0.0926669,0,0)">
                    <path d="M-137.367,199.419L-138.602,199.419L-138.602,199.04C-138.602,198.863 -138.617,198.75 -138.649,198.702C-138.681,198.653 -138.733,198.629 -138.807,198.629C-138.887,198.629 -138.947,198.662 -138.988,198.727C-139.029,198.792 -139.05,198.891 -139.05,199.024C-139.05,199.195 -139.027,199.323 -138.981,199.409C-138.936,199.496 -138.811,199.6 -138.605,199.722C-138.013,200.074 -137.64,200.362 -137.487,200.587C-137.333,200.813 -137.256,201.176 -137.256,201.677C-137.256,202.041 -137.299,202.31 -137.384,202.482C-137.469,202.655 -137.634,202.8 -137.878,202.917C-138.123,203.034 -138.407,203.092 -138.731,203.092C-139.087,203.092 -139.391,203.025 -139.642,202.89C-139.894,202.755 -140.059,202.583 -140.137,202.375C-140.214,202.167 -140.253,201.871 -140.253,201.488L-140.253,201.153L-139.018,201.153L-139.018,201.775C-139.018,201.967 -139.001,202.09 -138.966,202.144C-138.932,202.199 -138.87,202.227 -138.782,202.227C-138.693,202.227 -138.627,202.192 -138.584,202.122C-138.541,202.053 -138.519,201.95 -138.519,201.813C-138.519,201.512 -138.56,201.315 -138.643,201.222C-138.727,201.13 -138.934,200.975 -139.265,200.758C-139.595,200.539 -139.814,200.38 -139.922,200.281C-140.029,200.182 -140.118,200.045 -140.189,199.87C-140.259,199.696 -140.294,199.472 -140.294,199.201C-140.294,198.809 -140.244,198.523 -140.144,198.342C-140.044,198.161 -139.883,198.019 -139.66,197.917C-139.436,197.815 -139.167,197.764 -138.851,197.764C-138.506,197.764 -138.211,197.82 -137.968,197.931C-137.725,198.043 -137.564,198.183 -137.485,198.353C-137.406,198.522 -137.367,198.81 -137.367,199.217L-137.367,199.419Z" style="fill:white;fill-rule:nonzero;"/>
                </g>
                <g transform="matrix(0.1883,-0.982112,0.982112,0.1883,0,0)">
                    <path d="M-113.32,212.388L-114.65,212.388L-114.65,211.497C-114.65,211.238 -114.664,211.077 -114.693,211.012C-114.721,210.948 -114.784,210.916 -114.88,210.916C-114.99,210.916 -115.059,210.955 -115.089,211.033C-115.118,211.111 -115.133,211.279 -115.133,211.538L-115.133,213.913C-115.133,214.162 -115.118,214.324 -115.089,214.4C-115.059,214.475 -114.993,214.513 -114.89,214.513C-114.791,214.513 -114.726,214.475 -114.696,214.4C-114.665,214.324 -114.65,214.146 -114.65,213.866L-114.65,213.225L-113.32,213.225L-113.32,213.424C-113.32,213.952 -113.358,214.327 -113.432,214.548C-113.507,214.769 -113.672,214.963 -113.928,215.129C-114.184,215.296 -114.499,215.379 -114.874,215.379C-115.264,215.379 -115.585,215.308 -115.837,215.167C-116.09,215.026 -116.258,214.831 -116.34,214.581C-116.422,214.332 -116.463,213.956 -116.463,213.455L-116.463,211.961C-116.463,211.593 -116.45,211.317 -116.425,211.132C-116.4,210.948 -116.324,210.771 -116.199,210.6C-116.074,210.43 -115.9,210.295 -115.678,210.197C-115.456,210.1 -115.201,210.051 -114.912,210.051C-114.52,210.051 -114.197,210.126 -113.942,210.278C-113.688,210.43 -113.52,210.619 -113.44,210.845C-113.36,211.071 -113.32,211.423 -113.32,211.901L-113.32,212.388Z" style="fill:white;fill-rule:nonzero;"/>
                </g>
                <g transform="matrix(0.281461,-0.959573,0.959573,0.281461,0,0)">
                    <path d="M-88.467,220.008L-88.467,225.121L-89.797,225.121L-89.797,222.974L-90.195,222.974L-90.195,225.121L-91.525,225.121L-91.525,220.008L-90.195,220.008L-90.195,221.837L-89.797,221.837L-89.797,220.008L-88.467,220.008Z" style="fill:white;fill-rule:nonzero;"/>
                </g>
                <g transform="matrix(0.393673,-0.919251,0.919251,0.393673,0,0)">
                    <path d="M-55.274,228.871L-55.864,233.984L-57.526,233.984C-57.677,233.199 -57.811,232.306 -57.927,231.306C-57.979,231.734 -58.103,232.626 -58.296,233.984L-59.948,233.984L-60.542,228.871L-59.25,228.871L-59.114,230.656L-58.975,232.377C-58.927,231.486 -58.805,230.318 -58.609,228.871L-57.226,228.871C-57.207,229.021 -57.158,229.583 -57.08,230.558L-56.935,232.5C-56.861,231.264 -56.738,230.054 -56.566,228.871L-55.274,228.871Z" style="fill:white;fill-rule:nonzero;"/>
                </g>
                <g transform="matrix(0.500354,-0.865821,0.865821,0.500354,0,0)">
                    <path d="M-24.273,233.857L-23.512,238.971L-24.874,238.971L-24.94,238.052L-25.417,238.052L-25.496,238.971L-26.873,238.971L-26.197,233.857L-24.273,233.857ZM-24.978,237.145C-25.045,236.566 -25.113,235.851 -25.18,235.001C-25.315,235.978 -25.399,236.693 -25.433,237.145L-24.978,237.145ZM-25.512,232.875L-25.512,233.696L-26.336,233.696L-26.336,232.875L-25.512,232.875ZM-24.131,232.875L-24.131,233.696L-24.956,233.696L-24.956,232.875L-24.131,232.875Z" style="fill:white;fill-rule:nonzero;"/>
                </g>
                <g transform="matrix(0.581073,-0.813851,0.813851,0.581073,0,0)">
                    <path d="M-0.073,235L1.254,235C1.673,235 1.99,235.033 2.206,235.098C2.422,235.163 2.596,235.296 2.729,235.495C2.861,235.694 2.928,236.014 2.928,236.456C2.928,236.755 2.881,236.964 2.787,237.082C2.693,237.2 2.509,237.29 2.233,237.353C2.54,237.423 2.749,237.538 2.858,237.699C2.968,237.86 3.022,238.107 3.022,238.44L3.022,238.914C3.022,239.259 2.983,239.515 2.904,239.681C2.825,239.847 2.699,239.961 2.526,240.022C2.354,240.083 2,240.114 1.465,240.114L-0.073,240.114L-0.073,235ZM1.257,235.875L1.257,237.012C1.314,237.01 1.358,237.009 1.389,237.009C1.52,237.009 1.603,236.977 1.639,236.913C1.675,236.848 1.693,236.665 1.693,236.362C1.693,236.202 1.678,236.089 1.648,236.025C1.619,235.961 1.581,235.92 1.533,235.904C1.486,235.887 1.394,235.877 1.257,235.875ZM1.257,237.808L1.257,239.239C1.444,239.233 1.564,239.203 1.615,239.15C1.667,239.098 1.693,238.968 1.693,238.762L1.693,238.285C1.693,238.066 1.67,237.933 1.623,237.887C1.577,237.841 1.455,237.814 1.257,237.808Z" style="fill:white;fill-rule:nonzero;"/>
                </g>
                <g transform="matrix(0.638538,-0.769591,0.769591,0.638538,0,0)">
                    <rect x="21.039" y="234.16" width="1.33" height="5.113" style="fill:white;fill-rule:nonzero;"/>
                </g>
                <g transform="matrix(0.693048,-0.720891,0.720891,0.693048,0,0)">
                    <path d="M43.279,233.383L42.044,233.383L42.044,233.004C42.044,232.827 42.028,232.714 41.997,232.666C41.965,232.617 41.912,232.593 41.839,232.593C41.759,232.593 41.698,232.626 41.657,232.691C41.616,232.756 41.596,232.855 41.596,232.988C41.596,233.158 41.619,233.287 41.665,233.373C41.709,233.46 41.835,233.564 42.041,233.686C42.633,234.037 43.005,234.326 43.159,234.551C43.313,234.777 43.389,235.14 43.389,235.641C43.389,236.005 43.347,236.274 43.262,236.446C43.176,236.619 43.012,236.764 42.767,236.881C42.523,236.997 42.239,237.056 41.915,237.056C41.559,237.056 41.255,236.988 41.003,236.854C40.752,236.719 40.587,236.547 40.509,236.339C40.431,236.13 40.392,235.835 40.392,235.451L40.392,235.117L41.627,235.117L41.627,235.739C41.627,235.93 41.644,236.054 41.679,236.108C41.714,236.163 41.776,236.19 41.864,236.19C41.952,236.19 42.018,236.156 42.061,236.086C42.105,236.017 42.126,235.914 42.126,235.777C42.126,235.476 42.085,235.279 42.003,235.186C41.919,235.093 41.711,234.939 41.381,234.722C41.05,234.503 40.831,234.344 40.724,234.245C40.616,234.146 40.527,234.009 40.457,233.834C40.386,233.66 40.351,233.436 40.351,233.165C40.351,232.773 40.401,232.487 40.501,232.306C40.601,232.125 40.763,231.983 40.986,231.881C41.209,231.779 41.479,231.728 41.795,231.728C42.14,231.728 42.434,231.783 42.677,231.895C42.92,232.007 43.082,232.147 43.161,232.317C43.239,232.486 43.279,232.774 43.279,233.181L43.279,233.383Z" style="fill:white;fill-rule:nonzero;"/>
                </g>
                <g transform="matrix(0.760561,-0.649266,0.649266,0.760561,0,0)">
                    <path d="M70.187,228.612L68.857,228.612L68.857,227.721C68.857,227.462 68.843,227.3 68.815,227.236C68.786,227.172 68.724,227.14 68.627,227.14C68.517,227.14 68.448,227.179 68.418,227.257C68.389,227.335 68.374,227.503 68.374,227.762L68.374,230.137C68.374,230.386 68.389,230.548 68.418,230.624C68.448,230.699 68.514,230.737 68.617,230.737C68.716,230.737 68.781,230.699 68.812,230.624C68.842,230.548 68.857,230.37 68.857,230.09L68.857,229.449L70.187,229.449L70.187,229.648C70.187,230.176 70.15,230.551 70.075,230.772C70,230.993 69.835,231.187 69.579,231.353C69.323,231.519 69.008,231.603 68.633,231.603C68.244,231.603 67.922,231.532 67.67,231.391C67.417,231.25 67.25,231.055 67.168,230.805C67.086,230.556 67.044,230.18 67.044,229.679L67.044,228.185C67.044,227.817 67.057,227.54 67.082,227.356C67.108,227.172 67.183,226.995 67.308,226.824C67.433,226.653 67.607,226.519 67.829,226.421C68.051,226.323 68.307,226.274 68.595,226.274C68.987,226.274 69.31,226.35 69.565,226.502C69.82,226.653 69.987,226.842 70.067,227.069C70.147,227.295 70.187,227.647 70.187,228.125L70.187,228.612Z" style="fill:white;fill-rule:nonzero;"/>
                </g>
                <g transform="matrix(0.821332,-0.570451,0.570451,0.821332,0,0)">
                    <path d="M96.578,218.211L96.578,223.324L95.248,223.324L95.248,221.176L94.85,221.176L94.85,223.324L93.521,223.324L93.521,218.211L94.85,218.211L94.85,220.039L95.248,220.039L95.248,218.211L96.578,218.211Z" style="fill:white;fill-rule:nonzero;"/>
                </g>
                <g transform="matrix(0.88641,-0.462901,0.462901,0.88641,0,0)">
                    <path d="M128.8,206.075L127.47,206.075L127.47,205.611C127.47,205.318 127.457,205.135 127.432,205.061C127.407,204.988 127.347,204.951 127.252,204.951C127.17,204.951 127.114,204.983 127.085,205.046C127.055,205.109 127.04,205.271 127.04,205.532L127.04,207.986C127.04,208.216 127.055,208.367 127.085,208.439C127.114,208.512 127.173,208.548 127.261,208.548C127.358,208.548 127.424,208.507 127.459,208.425C127.494,208.343 127.511,208.183 127.511,207.945L127.511,207.339L127.242,207.339L127.242,206.562L128.8,206.562L128.8,209.306L127.963,209.306L127.839,208.94C127.749,209.098 127.635,209.216 127.497,209.295C127.359,209.374 127.196,209.414 127.009,209.414C126.786,209.414 126.577,209.359 126.382,209.251C126.187,209.143 126.039,209.008 125.938,208.848C125.837,208.688 125.774,208.52 125.749,208.345C125.723,208.169 125.711,207.905 125.711,207.553L125.711,206.034C125.711,205.546 125.737,205.191 125.79,204.97C125.842,204.749 125.993,204.546 126.243,204.362C126.492,204.178 126.815,204.086 127.211,204.086C127.6,204.086 127.924,204.166 128.18,204.326C128.437,204.486 128.605,204.676 128.683,204.896C128.761,205.116 128.8,205.435 128.8,205.854L128.8,206.075Z" style="fill:white;fill-rule:nonzero;"/>
                </g>
                <g transform="matrix(0.928648,-0.370961,0.370961,0.928648,0,0)">
                    <path d="M154.105,190.053L154.105,195.167L152.942,195.167L152.942,191.715L152.478,195.167L151.654,195.167L151.164,191.794L151.164,195.167L150.002,195.167L150.002,190.053L151.723,190.053C151.774,190.361 151.828,190.723 151.884,191.14L152.068,192.441L152.371,190.053L154.105,190.053Z" style="fill:white;fill-rule:nonzero;"/>
                </g>
                <g transform="matrix(0.967998,-0.250958,0.250958,0.967998,0,0)">
                    <path d="M181.281,169.053L181.281,172.471C181.281,172.858 181.268,173.13 181.243,173.287C181.218,173.444 181.143,173.605 181.019,173.77C180.894,173.936 180.731,174.061 180.527,174.146C180.324,174.231 180.085,174.274 179.809,174.274C179.504,174.274 179.234,174.223 179,174.122C178.767,174.021 178.592,173.89 178.476,173.728C178.36,173.565 178.292,173.394 178.271,173.214C178.25,173.034 178.239,172.656 178.239,172.079L178.239,169.053L179.569,169.053L179.569,172.887C179.569,173.111 179.581,173.253 179.605,173.315C179.629,173.378 179.678,173.409 179.752,173.409C179.836,173.409 179.891,173.374 179.915,173.306C179.939,173.238 179.951,173.076 179.951,172.821L179.951,169.053L181.281,169.053ZM179.484,168.071L179.484,168.892L178.659,168.892L178.659,168.071L179.484,168.071ZM180.864,168.071L180.864,168.892L180.04,168.892L180.04,168.071L180.864,168.071Z" style="fill:white;fill-rule:nonzero;"/>
                </g>
                <g transform="matrix(0.984139,-0.177401,0.177401,0.984139,0,0)">
                    <path d="M197.504,154.898L197.504,160.011L196.339,160.011L195.647,157.687L195.647,160.011L194.535,160.011L194.535,154.898L195.647,154.898L196.392,157.2L196.392,154.898L197.504,154.898Z" style="fill:white;fill-rule:nonzero;"/>
                </g>
                <g transform="matrix(0.996899,-0.0786908,0.0786908,0.996899,0,0)">
                    <path d="M213.162,134.473L214.157,134.473C214.799,134.473 215.233,134.502 215.46,134.561C215.686,134.62 215.858,134.717 215.976,134.852C216.094,134.986 216.168,135.137 216.197,135.302C216.227,135.467 216.241,135.792 216.241,136.276L216.241,138.067C216.241,138.526 216.22,138.833 216.177,138.988C216.133,139.142 216.058,139.263 215.951,139.351C215.843,139.438 215.711,139.499 215.553,139.534C215.395,139.569 215.157,139.586 214.839,139.586L213.162,139.586L213.162,134.473ZM214.492,135.348L214.492,138.711C214.683,138.711 214.801,138.673 214.845,138.596C214.889,138.519 214.912,138.31 214.912,137.969L214.912,135.982C214.912,135.751 214.904,135.602 214.889,135.537C214.875,135.472 214.841,135.424 214.788,135.393C214.736,135.363 214.637,135.348 214.492,135.348Z" style="fill:white;fill-rule:nonzero;"/>
                </g>
                <g transform="matrix(0.999027,0.0441068,-0.0441068,0.999027,0,0)">
                    <path d="M235.528,106.857L235.528,111.971L234.252,111.971L234.252,109.229C234.252,108.833 234.243,108.595 234.224,108.515C234.205,108.435 234.153,108.375 234.068,108.334C233.982,108.293 233.792,108.272 233.497,108.272L233.371,108.272L233.371,107.675C233.988,107.543 234.457,107.27 234.777,106.857L235.528,106.857Z" style="fill:white;fill-rule:nonzero;"/>
                </g>
                <g transform="matrix(0.993159,0.116769,-0.116769,0.993159,0,0)">
                    <path d="M246.132,91.587C246.319,91.662 246.464,91.776 246.565,91.926C246.666,92.077 246.716,92.435 246.716,93.002C246.716,93.414 246.676,93.718 246.596,93.914C246.516,94.11 246.36,94.271 246.129,94.396C245.897,94.521 245.587,94.584 245.197,94.584C244.818,94.584 244.518,94.524 244.297,94.404C244.076,94.284 243.917,94.125 243.822,93.927C243.726,93.729 243.678,93.399 243.678,92.938C243.678,92.629 243.702,92.36 243.749,92.133C243.796,91.906 243.945,91.723 244.196,91.587C244.038,91.511 243.92,91.39 243.841,91.225C243.762,91.06 243.722,90.85 243.722,90.595C243.722,90.155 243.844,89.825 244.089,89.605C244.333,89.385 244.698,89.275 245.185,89.275C245.747,89.275 246.135,89.392 246.35,89.625C246.565,89.859 246.672,90.193 246.672,90.626C246.672,90.902 246.637,91.101 246.566,91.223C246.496,91.345 246.351,91.467 246.132,91.587ZM245.415,90.487C245.415,90.315 245.4,90.201 245.369,90.145C245.339,90.089 245.28,90.061 245.194,90.061C245.11,90.061 245.053,90.091 245.023,90.151C244.994,90.211 244.979,90.323 244.979,90.487L244.979,90.876C244.979,91.03 244.996,91.136 245.03,91.195C245.063,91.254 245.12,91.283 245.2,91.283C245.285,91.283 245.341,91.254 245.371,91.197C245.4,91.139 245.415,91.019 245.415,90.838L245.415,90.487ZM245.44,92.613C245.44,92.417 245.42,92.287 245.38,92.223C245.34,92.159 245.277,92.127 245.191,92.127C245.107,92.127 245.046,92.158 245.009,92.22C244.972,92.282 244.954,92.413 244.954,92.613L244.954,93.276C244.954,93.497 244.974,93.64 245.016,93.703C245.057,93.766 245.121,93.797 245.21,93.797C245.3,93.797 245.361,93.765 245.393,93.701C245.425,93.637 245.44,93.492 245.44,93.267L245.44,92.613Z" style="fill:white;fill-rule:nonzero;"/>
                </g>
                <g transform="matrix(0.977303,0.211845,-0.211845,0.977303,0,0)">
                    <path d="M257.898,65.179L257.898,68.521L258.262,68.521L258.262,69.392L257.898,69.392L257.898,70.292L256.622,70.292L256.622,69.392L255.106,69.392L255.106,68.521L256.209,65.179L257.898,65.179ZM256.622,68.521L256.622,66.344L256.06,68.521L256.622,68.521Z" style="fill:white;fill-rule:nonzero;"/>
                </g>
                <g transform="matrix(0.952577,0.304297,-0.304297,0.952577,0,0)">
                    <path d="M266.854,40.156L266.854,43.498L267.217,43.498L267.217,44.37L266.854,44.37L266.854,45.27L265.578,45.27L265.578,44.37L264.062,44.37L264.062,43.498L265.164,40.156L266.854,40.156ZM265.578,43.498L265.578,41.322L265.016,43.498L265.578,43.498Z" style="fill:white;fill-rule:nonzero;"/>
                </g>
                <g transform="matrix(0.909608,0.415467,-0.415467,0.909608,0,0)">
                    <path d="M275.436,7.937L275.436,13.05L274.107,13.05L274.107,10.902L273.709,10.902L273.709,13.05L272.379,13.05L272.379,7.937L273.709,7.937L273.709,9.765L274.107,9.765L274.107,7.937L275.436,7.937Z" style="fill:white;fill-rule:nonzero;"/>
                </g>
                <g transform="matrix(0.865821,0.500354,-0.500354,0.865821,0,0)">
                    <path d="M278.441,-18.432L279.202,-13.319L277.841,-13.319L277.775,-14.238L277.298,-14.238L277.219,-13.319L275.842,-13.319L276.518,-18.432L278.441,-18.432ZM277.737,-15.144C277.669,-15.723 277.602,-16.438 277.535,-17.289C277.4,-16.312 277.316,-15.597 277.282,-15.144L277.737,-15.144Z" style="fill:white;fill-rule:nonzero;"/>
                </g>
                <g transform="matrix(0.813851,0.581073,-0.581073,0.813851,0,0)">
                    <path d="M280.023,-45.17L280.023,-40.057L278.857,-40.057L278.165,-42.381L278.165,-40.057L277.054,-40.057L277.054,-45.17L278.165,-45.17L278.911,-42.867L278.911,-45.17L280.023,-45.17Z" style="fill:white;fill-rule:nonzero;"/>
                </g>
                <g transform="matrix(0.753839,0.65706,-0.65706,0.753839,0,0)">
                    <path d="M275.558,-72.123L276.553,-72.123C277.195,-72.123 277.629,-72.094 277.856,-72.035C278.082,-71.976 278.254,-71.879 278.372,-71.744C278.49,-71.609 278.564,-71.459 278.593,-71.294C278.622,-71.129 278.637,-70.804 278.637,-70.32L278.637,-68.529C278.637,-68.07 278.616,-67.763 278.572,-67.608C278.529,-67.453 278.454,-67.332 278.347,-67.245C278.239,-67.158 278.107,-67.097 277.949,-67.062C277.791,-67.027 277.553,-67.01 277.235,-67.01L275.558,-67.01L275.558,-72.123ZM276.887,-71.248L276.887,-67.885C277.079,-67.885 277.197,-67.923 277.241,-68C277.285,-68.077 277.308,-68.286 277.308,-68.627L277.308,-70.613C277.308,-70.845 277.3,-70.994 277.285,-71.059C277.271,-71.124 277.237,-71.172 277.184,-71.202C277.132,-71.233 277.033,-71.248 276.887,-71.248Z" style="fill:white;fill-rule:nonzero;"/>
                </g>
                <g transform="matrix(0.686015,0.727587,-0.727587,0.686015,0,0)">
                    <path d="M271.44,-99.088L272.767,-99.088C273.186,-99.088 273.503,-99.055 273.719,-98.99C273.935,-98.924 274.109,-98.792 274.242,-98.593C274.374,-98.394 274.441,-98.074 274.441,-97.632C274.441,-97.333 274.394,-97.124 274.3,-97.006C274.206,-96.888 274.022,-96.798 273.746,-96.735C274.053,-96.665 274.262,-96.55 274.371,-96.389C274.481,-96.228 274.535,-95.981 274.535,-95.648L274.535,-95.174C274.535,-94.829 274.496,-94.573 274.417,-94.407C274.338,-94.24 274.212,-94.127 274.04,-94.066C273.867,-94.005 273.513,-93.974 272.978,-93.974L271.44,-93.974L271.44,-99.088ZM272.77,-98.213L272.77,-97.076C272.827,-97.078 272.871,-97.079 272.903,-97.079C273.033,-97.079 273.116,-97.111 273.152,-97.175C273.188,-97.239 273.206,-97.423 273.206,-97.726C273.206,-97.886 273.191,-97.998 273.161,-98.063C273.132,-98.127 273.094,-98.167 273.046,-98.184C272.999,-98.201 272.907,-98.211 272.77,-98.213ZM272.77,-96.28L272.77,-94.849C272.957,-94.855 273.077,-94.885 273.128,-94.937C273.18,-94.99 273.206,-95.12 273.206,-95.326L273.206,-95.803C273.206,-96.022 273.183,-96.154 273.136,-96.201C273.09,-96.247 272.968,-96.273 272.77,-96.28Z" style="fill:white;fill-rule:nonzero;"/>
                </g>
                <g transform="matrix(0.610728,0.791841,-0.791841,0.610728,0,0)">
                    <path d="M266.866,-125.821L267.628,-120.708L266.266,-120.708L266.2,-121.627L265.723,-121.627L265.644,-120.708L264.267,-120.708L264.943,-125.821L266.866,-125.821ZM266.162,-122.533C266.095,-123.112 266.027,-123.827 265.96,-124.678C265.825,-123.701 265.741,-122.986 265.707,-122.533L266.162,-122.533Z" style="fill:white;fill-rule:nonzero;"/>
                </g>
                <g transform="matrix(0.549695,0.835365,-0.835365,0.549695,0,0)">
                    <path d="M259.537,-145.542L259.537,-141.452L260.346,-141.452L260.346,-140.428L258.208,-140.428L258.208,-145.542L259.537,-145.542Z" style="fill:white;fill-rule:nonzero;"/>
                </g>
                <g transform="matrix(0.507021,0.861933,-0.861933,0.507021,0,0)">
                    <path d="M254.709,-158.45L254.709,-154.36L255.517,-154.36L255.517,-153.337L253.379,-153.337L253.379,-158.45L254.709,-158.45Z" style="fill:white;fill-rule:nonzero;"/>
                </g>
            </g>
        </g>
    </g>
</svg>
